<?xml version="1.0" encoding="UTF-8" standalone="no"?>
<!-- Created with Inkscape (http://www.inkscape.org/) -->

<svg
   xmlns:dc="http://purl.org/dc/elements/1.1/"
   xmlns:cc="http://creativecommons.org/ns#"
   xmlns:rdf="http://www.w3.org/1999/02/22-rdf-syntax-ns#"
   xmlns:svg="http://www.w3.org/2000/svg"
   xmlns="http://www.w3.org/2000/svg"
   xmlns:sodipodi="http://sodipodi.sourceforge.net/DTD/sodipodi-0.dtd"
   xmlns:inkscape="http://www.inkscape.org/namespaces/inkscape"
   width="744.09448819"
   height="1052.3622047"
   id="svg2"
   version="1.1"
   inkscape:version="0.47 r22583"
   sodipodi:docname="New document 1">
  <defs
     id="defs4">
    <inkscape:perspective
       sodipodi:type="inkscape:persp3d"
       inkscape:vp_x="0 : 526.18109 : 1"
       inkscape:vp_y="0 : 1000 : 0"
       inkscape:vp_z="744.09448 : 526.18109 : 1"
       inkscape:persp3d-origin="372.04724 : 350.78739 : 1"
       id="perspective10" />
    <inkscape:perspective
       id="perspective2834"
       inkscape:persp3d-origin="0.5 : 0.33333333 : 1"
       inkscape:vp_z="1 : 0.5 : 1"
       inkscape:vp_y="0 : 1000 : 0"
       inkscape:vp_x="0 : 0.5 : 1"
       sodipodi:type="inkscape:persp3d" />
    <inkscape:perspective
       id="perspective2868"
       inkscape:persp3d-origin="0.5 : 0.33333333 : 1"
       inkscape:vp_z="1 : 0.5 : 1"
       inkscape:vp_y="0 : 1000 : 0"
       inkscape:vp_x="0 : 0.5 : 1"
       sodipodi:type="inkscape:persp3d" />
    <inkscape:perspective
       id="perspective2906"
       inkscape:persp3d-origin="0.5 : 0.33333333 : 1"
       inkscape:vp_z="1 : 0.5 : 1"
       inkscape:vp_y="0 : 1000 : 0"
       inkscape:vp_x="0 : 0.5 : 1"
       sodipodi:type="inkscape:persp3d" />
    <inkscape:perspective
       id="perspective2937"
       inkscape:persp3d-origin="0.5 : 0.33333333 : 1"
       inkscape:vp_z="1 : 0.5 : 1"
       inkscape:vp_y="0 : 1000 : 0"
       inkscape:vp_x="0 : 0.5 : 1"
       sodipodi:type="inkscape:persp3d" />
    <inkscape:perspective
       id="perspective3734"
       inkscape:persp3d-origin="0.5 : 0.33333333 : 1"
       inkscape:vp_z="1 : 0.5 : 1"
       inkscape:vp_y="0 : 1000 : 0"
       inkscape:vp_x="0 : 0.5 : 1"
       sodipodi:type="inkscape:persp3d" />
    <inkscape:perspective
       id="perspective3759"
       inkscape:persp3d-origin="0.5 : 0.33333333 : 1"
       inkscape:vp_z="1 : 0.5 : 1"
       inkscape:vp_y="0 : 1000 : 0"
       inkscape:vp_x="0 : 0.5 : 1"
       sodipodi:type="inkscape:persp3d" />
  </defs>
  <sodipodi:namedview
     id="base"
     pagecolor="#ffffff"
     bordercolor="#666666"
     borderopacity="1.0"
     inkscape:pageopacity="0.0"
     inkscape:pageshadow="2"
     inkscape:zoom="2.1732485"
     inkscape:cx="215.16768"
     inkscape:cy="862.21617"
     inkscape:document-units="px"
     inkscape:current-layer="layer1"
     showgrid="false"
     inkscape:window-width="1200"
     inkscape:window-height="1577"
     inkscape:window-x="1200"
     inkscape:window-y="0"
     inkscape:window-maximized="1" />
  <metadata
     id="metadata7">
    <rdf:RDF>
      <cc:Work
         rdf:about="">
        <dc:format>image/svg+xml</dc:format>
        <dc:type
           rdf:resource="http://purl.org/dc/dcmitype/StillImage" />
        <dc:title></dc:title>
      </cc:Work>
    </rdf:RDF>
  </metadata>
  <g
     inkscape:label="Layer 1"
     inkscape:groupmode="layer"
     id="layer1">
    <path
       style="font-size:40px;font-style:normal;font-variant:normal;font-weight:bold;font-stretch:normal;text-align:start;line-height:100%;writing-mode:lr-tb;text-anchor:start;fill:#000000;fill-opacity:1;stroke:none;font-family:LMSansDemiCond10;-inkscape-font-specification:LMSansDemiCond10 Semi-Bold"
       id="path2852-4"
       d="m 82.72309,152.65233 0,-20.75786 c 0,-6.7264 -3.833333,-11.28301 -12.584904,-11.28301 -4.050313,0 -6.943394,0.7956 -9.908803,2.24214 -1.374213,0.72326 -1.735848,0.86792 -1.735848,1.66352 0,0.50628 0.144654,2.02515 0.216981,2.60377 0.144654,1.66352 0.216981,2.09748 0.940251,2.09748 0.361635,0 0.433962,-0.0723 1.157233,-0.72327 2.965408,-2.89308 6.292451,-3.61635 9.040878,-3.61635 1.591195,0 4.845911,1e-5 4.845911,7.08805 l 0,1.44654 c 0,1.22956 -0.07233,1.30189 -0.795597,1.37421 -3.110062,0.14466 -18.081757,0.79561 -18.081757,11.5 0,5.20754 3.833332,10.27044 9.47484,10.27044 5.207547,0 8.462263,-3.61635 9.619495,-5.71384 l 0,1.80818 c 0,2.24213 0.433963,3.18239 3.18239,3.18239 l 1.44654,0 c 2.531446,0 3.18239,-0.72327 3.18239,-3.18239 m -8.028301,-8.0283 c 0,6.58175 -5.207546,7.30503 -6.437105,7.30503 -2.893081,0 -4.845911,-2.74843 -4.845911,-5.78616 0,-7.37735 7.811319,-8.60692 11.283016,-8.8239 l 0,7.30503" />
    <path
       style="font-size:40px;font-style:normal;font-variant:normal;font-weight:bold;font-stretch:normal;text-align:start;line-height:100%;writing-mode:lr-tb;text-anchor:start;fill:#78ff00;fill-opacity:1;stroke:none;font-family:LMSansDemiCond10;-inkscape-font-specification:LMSansDemiCond10 Semi-Bold"
       id="path2854-6-6"
       d="m 97.776153,140.65235 0,-43.83018 c 0,-2.24213 -0.433962,-3.18239 -3.18239,-3.18239 l -1.374213,0 c -2.531446,0 -3.254716,0.65095 -3.254716,3.25472 l 0,43.68553 c 0,2.53144 0.650943,3.25471 3.254716,3.25471 l 1.374213,0 c 2.531446,0 3.18239,-0.72327 3.18239,-3.18239" />
    <path
       style="font-size:40px;font-style:normal;font-variant:normal;font-weight:bold;font-stretch:normal;text-align:start;line-height:100%;writing-mode:lr-tb;text-anchor:start;fill:#006afd;fill-opacity:1;stroke:none;font-family:LMSansDemiCond10;-inkscape-font-specification:LMSansDemiCond10 Semi-Bold"
       id="path2854-6-6-7"
       d="m 97.776153,158.65235 0,-43.83018 c 0,-2.24213 -0.433962,-3.18239 -3.18239,-3.18239 l -1.374213,0 c -2.531446,0 -3.254716,0.65095 -3.254716,3.25472 l 0,43.68553 c 0,2.53144 0.650943,3.25471 3.254716,3.25471 l 1.374213,0 c 2.531446,0 3.18239,-0.72327 3.18239,-3.18239" />
    <path
       style="font-size:40px;font-style:normal;font-variant:normal;font-weight:bold;font-stretch:normal;text-align:start;line-height:100%;writing-mode:lr-tb;text-anchor:start;fill:#78ff00;fill-opacity:1;stroke:none;font-family:LMSansDemiCond10;-inkscape-font-specification:LMSansDemiCond10 Semi-Bold"
       id="path2856-2-2"
       d="m 113.59769,140.65235 0,-43.83018 c 0,-2.24213 -0.43396,-3.18239 -3.18239,-3.18239 l -1.37421,0 c -2.53145,0 -3.25472,0.65095 -3.25472,3.25472 l 0,43.68553 c 0,2.53144 0.65094,3.25471 3.25472,3.25471 l 1.37421,0 c 2.53145,0 3.18239,-0.72327 3.18239,-3.18239" />
    <path
       style="font-size:40px;font-style:normal;font-variant:normal;font-weight:bold;font-stretch:normal;text-align:start;line-height:100%;writing-mode:lr-tb;text-anchor:start;fill:#006afd;fill-opacity:1;stroke:none;font-family:LMSansDemiCond10;-inkscape-font-specification:LMSansDemiCond10 Semi-Bold"
       id="path2856-2-2-6"
       d="m 113.59769,158.65235 0,-43.83018 c 0,-2.24213 -0.43396,-3.18239 -3.18239,-3.18239 l -1.37421,0 c -2.53145,0 -3.25472,0.65095 -3.25472,3.25472 l 0,43.68553 c 0,2.53144 0.65094,3.25471 3.25472,3.25471 l 1.37421,0 c 2.53145,0 3.18239,-0.72327 3.18239,-3.18239" />
    <path
       style="font-size:40px;font-style:normal;font-variant:normal;font-weight:bold;font-stretch:normal;text-align:start;line-height:100%;writing-mode:lr-tb;text-anchor:start;fill:#000000;fill-opacity:1;stroke:none;font-family:LMSansDemiCond10;-inkscape-font-specification:LMSansDemiCond10 Semi-Bold"
       id="path2854-6"
       d="m 97.776153,152.65233 0,-43.83018 c 0,-2.24213 -0.433962,-3.18239 -3.18239,-3.18239 l -1.374213,0 c -2.531446,0 -3.254716,0.65095 -3.254716,3.25472 l 0,43.68552 c 0,2.53145 0.650943,3.25472 3.254716,3.25472 l 1.374213,0 c 2.531446,0 3.18239,-0.72327 3.18239,-3.18239" />
    <path
       style="font-size:40px;font-style:normal;font-variant:normal;font-weight:bold;font-stretch:normal;text-align:start;line-height:100%;writing-mode:lr-tb;text-anchor:start;fill:#000000;fill-opacity:1;stroke:none;font-family:LMSansDemiCond10;-inkscape-font-specification:LMSansDemiCond10 Semi-Bold"
       id="path2856-2"
       d="m 113.59769,152.65233 0,-43.83018 c 0,-2.24213 -0.43396,-3.18239 -3.18239,-3.18239 l -1.37421,0 c -2.53145,0 -3.25472,0.65095 -3.25472,3.25472 l 0,43.68552 c 0,2.53145 0.65094,3.25472 3.25472,3.25472 l 1.37421,0 c 2.53145,0 3.18239,-0.72327 3.18239,-3.18239" />
    <path
       style="font-size:40px;font-style:normal;font-variant:normal;font-weight:bold;font-stretch:normal;text-align:start;line-height:100%;writing-mode:lr-tb;text-anchor:start;fill:#000000;fill-opacity:1;stroke:none;font-family:LMSansDemiCond10;-inkscape-font-specification:LMSansDemiCond10 Semi-Bold"
       id="path2858-5"
       d="m 147.13935,123.50454 c 0,-1.80818 -1.59119,-1.80818 -3.03773,-1.80818 -2.09749,0 -3.4717,0 -4.2673,2.89308 l -2.6761,9.33019 c -2.24214,7.73898 -2.82075,11.64465 -2.96541,13.3805 -0.0723,-1.59119 -0.14465,-4.84593 -6.00314,-20.3239 -1.66352,-4.48427 -1.95283,-5.27987 -5.27987,-5.27987 l -0.86793,0 c -1.0849,0 -2.6761,0 -2.6761,1.73585 0,0 0,0.36164 0.36164,1.30189 l 11.49999,30.08804 c 0.28931,0.86792 0.28931,1.08491 0.28931,1.08491 0,0.72327 -1.22956,4.33962 -1.73585,5.13522 -0.57861,1.01257 -1.95283,2.45912 -4.33962,2.45912 -0.50629,0 -2.16981,-0.0723 -4.19497,-1.01258 -0.36163,-0.14466 -0.50629,-0.21698 -0.50629,-0.21698 -0.50628,0 -0.86792,0.2893 -0.86792,1.01257 0,0.57862 0.28931,4.33963 0.65094,4.62893 0.57862,0.43396 3.39937,0.72327 4.84591,0.72327 5.64151,0 9.54717,-4.12264 11.06604,-9.1132 l 10.34277,-34.64465 c 0.36163,-1.0849 0.36163,-1.37421 0.36163,-1.37421" />
  </g>
</svg>
